<svg width="96" height="13" viewBox="0 0 96 13" fill="none"
                                        xmlns="http://www.w3.org/2000/svg">
                                        <path
                                            d="M0.278409 12V0.363636H4.53977C5.36553 0.363636 6.04924 0.5 6.59091 0.772727C7.13258 1.04167 7.53788 1.4072 7.80682 1.86932C8.07576 2.32765 8.21023 2.8447 8.21023 3.42045C8.21023 3.9053 8.12121 4.31439 7.94318 4.64773C7.76515 4.97727 7.52652 5.24242 7.22727 5.44318C6.93182 5.64015 6.60606 5.78409 6.25 5.875V5.98864C6.63636 6.00758 7.01326 6.13258 7.38068 6.36364C7.75189 6.59091 8.05871 6.91477 8.30114 7.33523C8.54356 7.75568 8.66477 8.26705 8.66477 8.86932C8.66477 9.46402 8.52462 9.99811 8.24432 10.4716C7.9678 10.9413 7.53977 11.3144 6.96023 11.5909C6.38068 11.8636 5.64015 12 4.73864 12H0.278409ZM2.03409 10.4943H4.56818C5.40909 10.4943 6.01136 10.3314 6.375 10.0057C6.73864 9.67992 6.92045 9.27273 6.92045 8.78409C6.92045 8.41667 6.82765 8.07955 6.64205 7.77273C6.45644 7.46591 6.19129 7.22159 5.84659 7.03977C5.50568 6.85795 5.10038 6.76705 4.63068 6.76705H2.03409V10.4943ZM2.03409 5.39773H4.38636C4.7803 5.39773 5.13447 5.32197 5.44886 5.17045C5.76705 5.01894 6.01894 4.80682 6.20455 4.53409C6.39394 4.25758 6.48864 3.93182 6.48864 3.55682C6.48864 3.07576 6.32008 2.67235 5.98295 2.34659C5.64583 2.02083 5.12879 1.85795 4.43182 1.85795H2.03409V5.39773ZM10.5872 12V0.363636H17.8826V1.875H12.3428V5.42045H17.5019V6.92614H12.3428V10.4886H17.9508V12H10.5872ZM26.4144 3.42045C26.3538 2.88258 26.1038 2.46591 25.6644 2.17045C25.225 1.87121 24.672 1.72159 24.0053 1.72159C23.528 1.72159 23.1151 1.79735 22.7666 1.94886C22.4182 2.09659 22.1473 2.30114 21.9541 2.5625C21.7648 2.82008 21.6701 3.11364 21.6701 3.44318C21.6701 3.7197 21.7345 3.95833 21.8632 4.15909C21.9958 4.35985 22.1682 4.52841 22.3803 4.66477C22.5962 4.79735 22.8273 4.90909 23.0735 5C23.3197 5.08712 23.5564 5.15909 23.7837 5.21591L24.9201 5.51136C25.2913 5.60227 25.672 5.72538 26.0621 5.88068C26.4523 6.03598 26.814 6.24053 27.1473 6.49432C27.4807 6.74811 27.7496 7.0625 27.9541 7.4375C28.1625 7.8125 28.2666 8.26136 28.2666 8.78409C28.2666 9.44318 28.0962 10.0284 27.7553 10.5398C27.4182 11.0511 26.9276 11.4545 26.2837 11.75C25.6435 12.0455 24.8689 12.1932 23.9598 12.1932C23.0886 12.1932 22.3348 12.0549 21.6985 11.7784C21.0621 11.5019 20.564 11.1098 20.2041 10.6023C19.8443 10.0909 19.6454 9.48485 19.6076 8.78409H21.3689C21.403 9.20455 21.5394 9.55492 21.778 9.83523C22.0204 10.1117 22.3291 10.3182 22.7041 10.4545C23.0829 10.5871 23.4977 10.6534 23.9485 10.6534C24.4447 10.6534 24.886 10.5758 25.2723 10.4205C25.6625 10.2614 25.9693 10.0417 26.1928 9.76136C26.4163 9.47727 26.528 9.14583 26.528 8.76705C26.528 8.42235 26.4295 8.14015 26.2326 7.92045C26.0394 7.70076 25.7761 7.51894 25.4428 7.375C25.1132 7.23106 24.7401 7.10417 24.3235 6.99432L22.9485 6.61932C22.0166 6.36553 21.278 5.99242 20.7326 5.5C20.1909 5.00758 19.9201 4.35606 19.9201 3.54545C19.9201 2.875 20.1019 2.28977 20.4655 1.78977C20.8291 1.28977 21.3216 0.901515 21.9428 0.625C22.564 0.344697 23.2648 0.204545 24.0451 0.204545C24.8329 0.204545 25.528 0.342803 26.1303 0.619318C26.7363 0.895833 27.2136 1.27652 27.5621 1.76136C27.9106 2.24242 28.0924 2.79545 28.1076 3.42045H26.4144ZM29.6308 1.875V0.363636H38.6365V1.875H35.0058V12H33.2558V1.875H29.6308ZM46.8131 3.42045C46.7525 2.88258 46.5025 2.46591 46.0631 2.17045C45.6237 1.87121 45.0707 1.72159 44.404 1.72159C43.9268 1.72159 43.5139 1.79735 43.1654 1.94886C42.8169 2.09659 42.5461 2.30114 42.3529 2.5625C42.1635 2.82008 42.0688 3.11364 42.0688 3.44318C42.0688 3.7197 42.1332 3.95833 42.262 4.15909C42.3946 4.35985 42.5669 4.52841 42.779 4.66477C42.9949 4.79735 43.226 4.90909 43.4722 5C43.7184 5.08712 43.9552 5.15909 44.1824 5.21591L45.3188 5.51136C45.69 5.60227 46.0707 5.72538 46.4609 5.88068C46.851 6.03598 47.2127 6.24053 47.5461 6.49432C47.8794 6.74811 48.1484 7.0625 48.3529 7.4375C48.5612 7.8125 48.6654 8.26136 48.6654 8.78409C48.6654 9.44318 48.4949 10.0284 48.154 10.5398C47.8169 11.0511 47.3264 11.4545 46.6824 11.75C46.0423 12.0455 45.2677 12.1932 44.3586 12.1932C43.4874 12.1932 42.7336 12.0549 42.0972 11.7784C41.4609 11.5019 40.9627 11.1098 40.6029 10.6023C40.243 10.0909 40.0442 9.48485 40.0063 8.78409H41.7677C41.8018 9.20455 41.9381 9.55492 42.1768 9.83523C42.4192 10.1117 42.7279 10.3182 43.1029 10.4545C43.4817 10.5871 43.8965 10.6534 44.3472 10.6534C44.8434 10.6534 45.2847 10.5758 45.6711 10.4205C46.0612 10.2614 46.3681 10.0417 46.5915 9.76136C46.815 9.47727 46.9268 9.14583 46.9268 8.76705C46.9268 8.42235 46.8283 8.14015 46.6313 7.92045C46.4381 7.70076 46.1749 7.51894 45.8415 7.375C45.512 7.23106 45.1389 7.10417 44.7222 6.99432L43.3472 6.61932C42.4154 6.36553 41.6768 5.99242 41.1313 5.5C40.5896 5.00758 40.3188 4.35606 40.3188 3.54545C40.3188 2.875 40.5006 2.28977 40.8643 1.78977C41.2279 1.28977 41.7203 0.901515 42.3415 0.625C42.9627 0.344697 43.6635 0.204545 44.4438 0.204545C45.2317 0.204545 45.9268 0.342803 46.529 0.619318C47.1351 0.895833 47.6124 1.27652 47.9609 1.76136C48.3093 2.24242 48.4912 2.79545 48.5063 3.42045H46.8131ZM50.6034 12V0.363636H57.8989V1.875H52.3591V5.42045H57.5182V6.92614H52.3591V10.4886H57.967V12H50.6034ZM60.084 12V0.363636H61.8397V10.4886H67.1124V12H60.084ZM68.9553 12V0.363636H70.711V10.4886H75.9837V12H68.9553ZM77.8265 12V0.363636H85.122V1.875H79.5822V5.42045H84.7413V6.92614H79.5822V10.4886H85.1902V12H77.8265ZM87.3072 12V0.363636H91.4549C92.3564 0.363636 93.1045 0.518939 93.6992 0.829545C94.2977 1.14015 94.7447 1.57008 95.0401 2.11932C95.3356 2.66477 95.4833 3.29545 95.4833 4.01136C95.4833 4.72348 95.3337 5.35038 95.0344 5.89205C94.739 6.42992 94.292 6.84848 93.6935 7.14773C93.0988 7.44697 92.3507 7.59659 91.4492 7.59659H88.3072V6.08523H91.2901C91.8583 6.08523 92.3204 6.00379 92.6765 5.84091C93.0363 5.67803 93.2996 5.44129 93.4662 5.13068C93.6329 4.82008 93.7162 4.44697 93.7162 4.01136C93.7162 3.57197 93.631 3.19129 93.4606 2.86932C93.2939 2.54735 93.0306 2.30114 92.6708 2.13068C92.3147 1.95644 91.8469 1.86932 91.2674 1.86932H89.0628V12H87.3072ZM93.0515 6.75L95.9265 12H93.9265L91.1083 6.75H93.0515Z"
                                            fill="#1D1D1D" />
                                    </svg>