<svg width="128" height="13" viewBox="0 0 128 13" fill="none"
                                        xmlns="http://www.w3.org/2000/svg">
                                        <path
                                            d="M0.278409 12V0.363636H2.03409V10.4886H7.30682V12H0.278409ZM10.9053 0.363636V12H9.14966V0.363636H10.9053ZM13.3022 0.363636H15.4328L19.1374 9.40909H19.2738L22.9783 0.363636H25.109V12H23.4385V3.57955H23.3306L19.8988 11.983H18.5124L15.0806 3.57386H14.9726V12H13.3022V0.363636ZM29.2572 0.363636V12H27.5015V0.363636H29.2572ZM31.0802 1.875V0.363636H40.0859V1.875H36.4552V12H34.7052V1.875H31.0802ZM41.9159 12V0.363636H49.2114V1.875H43.6716V5.42045H48.8307V6.92614H43.6716V10.4886H49.2795V12H41.9159ZM55.1636 12H51.3965V0.363636H55.2829C56.4231 0.363636 57.4022 0.596591 58.2204 1.0625C59.0386 1.52462 59.6655 2.18939 60.1011 3.05682C60.5405 3.92045 60.7602 4.95644 60.7602 6.16477C60.7602 7.37689 60.5386 8.41856 60.0954 9.28977C59.656 10.161 59.0196 10.8314 58.1863 11.3011C57.353 11.767 56.3454 12 55.1636 12ZM53.1522 10.4659H55.067C55.9534 10.4659 56.6901 10.2992 57.2772 9.96591C57.8643 9.62879 58.3037 9.14205 58.5954 8.50568C58.8871 7.86553 59.0329 7.08523 59.0329 6.16477C59.0329 5.25189 58.8871 4.47727 58.5954 3.84091C58.3075 3.20455 57.8776 2.72159 57.3056 2.39205C56.7337 2.0625 56.0234 1.89773 55.1749 1.89773H53.1522V10.4659ZM66.8578 12V0.363636H74.1532V1.875H68.6135V5.42045H73.7726V6.92614H68.6135V10.4886H74.2214V12H66.8578ZM80.1055 12H76.3384V0.363636H80.2248C81.3649 0.363636 82.3441 0.596591 83.1623 1.0625C83.9805 1.52462 84.6073 2.18939 85.043 3.05682C85.4823 3.92045 85.702 4.95644 85.702 6.16477C85.702 7.37689 85.4805 8.41856 85.0373 9.28977C84.5979 10.161 83.9615 10.8314 83.1282 11.3011C82.2948 11.767 81.2873 12 80.1055 12ZM78.0941 10.4659H80.0089C80.8952 10.4659 81.632 10.2992 82.2191 9.96591C82.8062 9.62879 83.2456 9.14205 83.5373 8.50568C83.8289 7.86553 83.9748 7.08523 83.9748 6.16477C83.9748 5.25189 83.8289 4.47727 83.5373 3.84091C83.2494 3.20455 82.8195 2.72159 82.2475 2.39205C81.6755 2.0625 80.9653 1.89773 80.1168 1.89773H78.0941V10.4659ZM89.481 0.363636V12H87.7253V0.363636H89.481ZM91.3039 1.875V0.363636H100.31V1.875H96.6789V12H94.9289V1.875H91.3039ZM103.895 0.363636V12H102.14V0.363636H103.895ZM116.4 6.18182C116.4 7.42424 116.173 8.49242 115.718 9.38636C115.264 10.2765 114.641 10.9621 113.849 11.4432C113.061 11.9205 112.165 12.1591 111.161 12.1591C110.154 12.1591 109.254 11.9205 108.463 11.4432C107.675 10.9621 107.054 10.2746 106.599 9.38068C106.144 8.48674 105.917 7.42045 105.917 6.18182C105.917 4.93939 106.144 3.87311 106.599 2.98295C107.054 2.08901 107.675 1.40341 108.463 0.926136C109.254 0.445075 110.154 0.204545 111.161 0.204545C112.165 0.204545 113.061 0.445075 113.849 0.926136C114.641 1.40341 115.264 2.08901 115.718 2.98295C116.173 3.87311 116.4 4.93939 116.4 6.18182ZM114.661 6.18182C114.661 5.23485 114.508 4.4375 114.201 3.78977C113.898 3.13826 113.482 2.64583 112.951 2.3125C112.425 1.97538 111.828 1.80682 111.161 1.80682C110.491 1.80682 109.893 1.97538 109.366 2.3125C108.84 2.64583 108.423 3.13826 108.116 3.78977C107.813 4.4375 107.661 5.23485 107.661 6.18182C107.661 7.12879 107.813 7.92803 108.116 8.57955C108.423 9.22727 108.84 9.7197 109.366 10.0568C109.893 10.3902 110.491 10.5568 111.161 10.5568C111.828 10.5568 112.425 10.3902 112.951 10.0568C113.482 9.7197 113.898 9.22727 114.201 8.57955C114.508 7.92803 114.661 7.12879 114.661 6.18182ZM127.821 0.363636V12H126.207L120.293 3.46591H120.185V12H118.429V0.363636H120.054L125.974 8.90909H126.082V0.363636H127.821Z"
                                            fill="#1D1D1D" />
                                    </svg>
